<svg xmlns="http://www.w3.org/2000/svg" viewBox="0 0 135 135"><style>.st0{opacity:0;fill:#606060}.st1{fill:#fff}</style><path class="st0" d="M0 0h135v135H0z" id="Layer_3"/><g id="Layer_2"><path class="st1" d="M43 108.2c7.5 4.5 15.9 6.8 24.4 6.8 3.8 0 7.7-.5 11.5-1.4 25.4-6.3 41-32.1 34.7-57.5-3-12.3-10.7-22.7-21.6-29.3-10.9-6.6-23.6-8.5-35.9-5.4-12.3 3-22.7 10.7-29.3 21.6-6.6 10.9-8.5 23.6-5.4 35.9 3.1 12.3 10.7 22.7 21.6 29.3zM32.6 46.5c5.6-9.3 14.5-15.9 25.1-18.5 3.3-.8 6.6-1.2 9.9-1.2 7.3 0 14.5 2 21 5.9 9.3 5.6 15.9 14.5 18.5 25.1 2.6 10.6 1 21.5-4.7 30.8-5.6 9.3-14.5 15.9-25.1 18.5-10.6 2.6-21.5 1-30.8-4.7-9.3-5.6-15.9-14.6-18.5-25.1-2.6-10.6-1-21.5 4.6-30.8z"/><path class="st1" d="M69.6 35.7l-3.8 3.8 2.1 2.1c-.6.6-1.2 1.1-1.7 1.7-.5.7-1.1 1.4-1.5 2.2-1.3 2.6-2 5.4-2.7 8.3-.6 2.6-1.1 5.2-1.7 7.7-.1.3-.2.4-.4.4-.9.2-1.8.4-2.6.5-3.7.7-7.3 1.5-10.8 2.7-2.1.7-4.1 1.7-5.6 3.4-.2.3-.5.5-.8.8L38 67.2 34.2 71l29.2 29.2 3.8-3.8-2.1-2.1 1.6-1.6c.7-.6 1.2-1.4 1.6-2.2 1.2-2.6 1.9-5.4 2.6-8.2.6-2.6 1.1-5.2 1.6-7.8.1-.3.2-.4.5-.5.6-.1 1.2-.2 1.7-.3 4-.8 7.9-1.6 11.7-2.9 2.1-.7 4.1-1.6 5.5-3.3l.9-.9 2.1 2.1 3.8-3.8C89 55.2 79.3 45.4 69.6 35.7zm13.1 27c-4.9 2.6-9.7 4.3-14.6 5.4-.2 0-.4 0-.5-.1-.2-.1-.3-.3-.5-.4-.7-.4-.7-1.2-.5-2.2 1.1-4.3 2.5-8.5 4.7-12.8.6-1.2 1.4-2.2 2.5-3.1L85 60.7c-.8.7-1.4 1.5-2.3 2z" id="yjm2PK_2_"/></g></svg>