<svg xmlns="http://www.w3.org/2000/svg" viewBox="0 0 135 135"><style>.st0{opacity:0;fill:#606060}.st1{fill:#fff}</style><path class="st0" d="M0 0h135v135H0z" id="Layer_3"/><path class="st1" d="M116.6 69.7l1.1-2.2-1.1-2.2c-.6-1.3-16.1-32-49-32h-.1c-7.3 0-15.2 2.2-21.1 4.8l-6.9-6.9-6.6 5.3 66.8 66.1 5.7-5.5-6.4-6.4c10.5-8.9 17.2-20.2 17.6-21zM83 74.6c.8-1.9 1.2-4.1 1.2-6.3 0-9.6-7.8-17.4-17.4-17.4-2.2 0-4.3.5-6.3 1.2l-7-7c3.9-1.2 9.6-2.1 14-2.1 22.4 0 35.2 17.8 39 24.3-2.1 3.3-7.7 10.6-14.7 16.1L83 74.6zm-8.6 26.8l-49-49.1 5.5-6.9 52.7 52.9zm-23.1-1.2l-35-35.4 4-6.5 44.2 44.5z" id="Layer_2"/></svg>