<svg xmlns="http://www.w3.org/2000/svg" viewBox="0 0 135 135"><style>.st0{opacity:0;fill:#606060}.st1{fill:#fff}</style><path class="st0" d="M0 0h135v135H0z" id="Layer_3"/><g id="Layer_2"><path class="st1" d="M56.7 96.7c5.3 3.4 12.4 1.9 15.9-3.4 3-4.6 2.2-10.6-1.6-14.4l34.8-54-4-2.6-34.8 54c-5-1.9-10.7-.1-13.7 4.5-3.5 5.3-2 12.4 3.4 15.9z"/><path transform="rotate(-57.189 48.844 108.793)" class="st1" d="M40.3 106.4h17v4.8h-17z"/><path transform="rotate(-57.194 36.58 70.052)" class="st1" d="M34.2 56.7H39v26.8h-4.8z"/><path transform="rotate(-57.194 87.551 102.91)" class="st1" d="M85.2 91.5H90v22.9h-4.8z"/><path transform="rotate(-12.193 32.564 92.153)" class="st1" d="M19.2 89.8H46v4.8H19.2z"/><path transform="rotate(-12.193 91.843 79.344)" class="st1" d="M80.4 76.9h22.9v4.8H80.4z"/><path transform="rotate(-13.232 56.143 62.968)" class="st1" d="M53.8 55.4h4.8v15.2h-4.8z"/><path transform="rotate(-11.665 66.46 110.348)" class="st1" d="M64.1 105.3h4.8v10.2h-4.8z"/></g></svg>