<svg id="Layer_1" xmlns="http://www.w3.org/2000/svg" viewBox="0 0 99 111"><style>.st0{fill-rule:evenodd;clip-rule:evenodd;fill:#fff}.st1{fill:#3e785a}.st1,.st2,.st3{fill-rule:evenodd;clip-rule:evenodd}.st3{fill:url(#SVGID_1_)}</style><title>power-fever</title><g id="Page-1"><g id="new-monetization-assets" transform="translate(-982 -229)"><g id="power-fever" transform="translate(982 229)"><g id="power-attack"><g id="Group-16"><g id="power-fever-bg"><g id="module-rare-bg"><path id="Rectangle-5" class="st0" d="M23.6 2.3H48v4.6H23.6z"/><path class="st0" d="M51.8 3.8h24.4v4.6H51.8z"/><path id="Combined-Shape" class="st1" d="M19.8 4v6.1H80V4h9.2l9.9 8.8V106c0 2.8-2.2 5-5 5H5c-2.8 0-5-2.2-5-5V14C0 8.5 4.5 4 10 4h9.8z"/><path id="path-2" class="st2" d="M19.8 0v6.1H80V0h9.2L99 8.8V102c0 2.8-2.2 5-5 5H5c-2.8 0-5-2.2-5-5V10C0 4.5 4.5 0 10 0h9.8z"/><linearGradient id="SVGID_1_" gradientUnits="userSpaceOnUse" x1="-584.213" y1="563.877" x2="-583.052" y2="562.727" gradientTransform="matrix(99 0 0 -107 57820 60320)"><stop offset="0" stop-color="#60d597"/><stop offset="1" stop-color="#389765"/></linearGradient><path class="st3" d="M19.8 0v6.1H80V0h9.2L99 8.8V102c0 2.8-2.2 5-5 5H5c-2.8 0-5-2.2-5-5V10C0 4.5 4.5 0 10 0h9.8z"/></g></g></g></g></g></g></g></svg>