<svg xmlns="http://www.w3.org/2000/svg" viewBox="0 0 135 135"><style>.st0{opacity:0;fill:#606060}.st1{fill:#fff}</style><path class="st0" d="M0 0h135v135H0z" id="Layer_3"/><g id="Layer_2"><path class="st1" d="M72.7 50.4c8.4 2.5 13.5 11 11.9 19.4L78.4 68 85 80.1l12.1-6.6-6.3-1.9c2.6-11.9-4.4-23.9-16.3-27.4-7.4-2.2-15.4-.6-21.4 4.4l4.1 5c4.3-3.6 10.1-4.8 15.5-3.2zM61.1 90.8c7.4 2.2 15.4.6 21.4-4.4l-4.1-5C74 85 68.2 86.1 62.8 84.6 54.6 82.2 49.5 73.8 51 65.5l6.7 2-7-12.7-12.7 7 6.9 2c-2.5 11.6 4.5 23.5 16.2 27z"/><path class="st1" d="M67.5 115c3.8 0 7.6-.5 11.4-1.4 25.4-6.3 41-32.1 34.7-57.5-3-12.3-10.7-22.7-21.6-29.3-10.9-6.6-23.6-8.5-35.9-5.4-12.3 3-22.7 10.7-29.3 21.6-6.6 10.9-8.5 23.6-5.4 35.9 5.4 21.6 24.8 36.1 46.1 36.1zM32.6 46.5c5.6-9.3 14.5-15.9 25.1-18.5 3.3-.8 6.6-1.2 9.9-1.2 7.3 0 14.5 2 21 5.9 9.3 5.6 15.9 14.5 18.5 25.1 5.4 21.8-8 43.9-29.8 49.3-21.8 5.4-43.9-8-49.3-29.8-2.6-10.6-1-21.5 4.6-30.8z"/></g></svg>