<svg xmlns="http://www.w3.org/2000/svg" viewBox="0 0 135 135"><style>.st0{opacity:0;fill:#606060}.st1{fill:#fff}</style><path class="st0" d="M0 0h135v135H0z" id="Layer_3"/><g id="Layer_2"><path class="st1" d="M92 26.8c-10.9-6.6-23.6-8.5-35.9-5.4-12.3 3-22.7 10.7-29.3 21.6-6.6 10.9-8.5 23.6-5.4 35.9 5.3 21.6 24.8 36.1 46.1 36.1 3.8 0 7.6-.5 11.4-1.4 12.3-3 22.7-10.7 29.3-21.6 6.6-10.9 8.5-23.6 5.4-35.9-3-12.3-10.7-22.7-21.6-29.3zm10.4 61.7c-5.6 9.3-14.5 15.9-25.1 18.5-21.8 5.4-43.9-8-49.3-29.8-2.6-10.6-1-21.5 4.7-30.8 5.6-9.3 14.5-15.9 25.1-18.5 3.3-.8 6.6-1.2 9.9-1.2 7.3 0 14.5 2 21 5.9 9.3 5.6 15.9 14.5 18.5 25.1 2.4 10.6.8 21.5-4.8 30.8z"/><path class="st1" d="M71 39.5c-7.2-.9-14.1 1-19.6 4.8l5.1 5.1c3.9-2.4 8.7-3.6 13.6-3 9.1 1.2 16 8 17.9 16.5l-20.6-2.6L79.1 72c2.9-1.6 6.1-2.3 9.4-1.9-.4 3.1-1.4 5.9-2.9 8.3l5.1 5.1c2.5-3.6 4.2-7.9 4.8-12.5 1.9-15.4-9-29.5-24.5-31.5zm-2.6 49.1c.5-3.3 1.5-6.3 3-8.9L50 58.2l-1.3-.2c.1-.2.3-.5.4-.7l-5.2-5.2c-2.3 3.5-3.8 7.5-4.3 11.9-2 15.4 9 29.5 24.4 31.5 6.9.9 13.5-.8 18.9-4.4l-5.2-5.2c-2.8 1.6-6 2.5-9.3 2.7zm-7-.9c-9.7-2.9-16.2-12.5-14.8-22.8 9.5 1.2 16.1 11.3 14.8 22.8z"/></g></svg>