<svg xmlns="http://www.w3.org/2000/svg" viewBox="0 0 135 135"><style>.st0{opacity:0;fill:#606060}.st1{fill:#fff}</style><path class="st0" d="M0 0h135v135H0z" id="Layer_3"/><g id="Layer_2"><path class="st1" d="M92 26.8c-10.9-6.6-23.6-8.5-35.9-5.4-12.3 3-22.7 10.7-29.3 21.6-6.6 10.9-8.5 23.6-5.4 35.9 5.3 21.6 24.8 36.1 46.1 36.1 3.8 0 7.6-.5 11.4-1.4 12.3-3 22.7-10.7 29.3-21.6 6.6-10.9 8.5-23.6 5.4-35.9-3-12.3-10.7-22.7-21.6-29.3zm10.4 61.7c-5.6 9.3-14.5 15.9-25.1 18.5-21.8 5.4-43.9-8-49.3-29.8-2.6-10.6-1-21.5 4.7-30.8 5.6-9.3 14.5-15.9 25.1-18.5 3.3-.8 6.6-1.2 9.9-1.2 7.3 0 14.5 2 21 5.9 9.3 5.6 15.9 14.5 18.5 25.1 2.4 10.6.8 21.5-4.8 30.8z"/><path class="st1" d="M92.8 61.3L48.2 89.6l-3-2.9 28.6-44.4zm-3.7 28.6V75.2h-4.2v10.5H74.4v4.2h14.7zM45.2 46v14.7h4.2V50.2H60V46H45.2z"/></g></svg>