<svg xmlns="http://www.w3.org/2000/svg" viewBox="0 0 135 135"><style>.st0{opacity:0;fill:#606060}.st1{fill:#fff}</style><path class="st0" d="M0 0h135v135H0z" id="Layer_3"/><path class="st1" d="M54.4 114.8c2.2.3 4.4.2 6.6-.1 2.5-.4 4.8-1.1 7-2.2 1.8-.9 3.6-2.1 5.8-3.9 1.6-1.4 3.4-2.6 5.1-3.8l1.2-.9 7.5-5.4 6.7-4.8 7.5-5.4c2.1-1.5 2.8-3.3 2.4-5.6-.3-1.9-1.6-3.4-3.3-4.1-1.7-.7-3.5-.5-5 .5-2.4 1.6-4.7 3.3-7 5l-7 5 .2-2.9c1.2-19.7 3.4-57.2 3.4-58.5-.3-1.5-1.8-4-4.7-3.6-2.1.3-3.8 2-3.9 3.9-.2 2.2-.7 17-1 26.7-.3 7.4-.4 10.1-.4 10.3l-.1 1.6-1.6-.3c-.7-.1-3.9-.6-3.9-.6l-1.2-.2v-1.3c.2-10.9.7-39.5.7-40.6-.2-1.4-1.2-2.6-2.6-3.3-1.5-.7-3.2-.5-4.5.4-1.3.9-2 2.2-2 3.9 0 5.1.1 15.9.4 38.2v2.6h-6.8l-.4-37.6c0-.3-.1-.9-.1-1-.6-2.1-1.6-3-3.3-3.2-2.7-.2-4 1.6-4.5 3.3-.2 1.4.3 21.1.6 30.6.1 4.2.2 7.2.2 7.7v1l-1 .3c-.4.1-3.1.8-4.5.8h-1.4v-1.4c-.2-6.9-.7-26-.8-27.1-.4-1.7-1.1-3-2-3.6-.4-.2-.8-.3-1.3-.3-.4 0-.8.1-1.2.2-1.5.5-3.1 1.9-3.1 4 0 1.1 0 2.2.1 3.4L32.8 87c.1 1.8.1 3.7.2 5.5.1 1.8.5 3.6 1.3 5.9 1.6 4.5 4.4 8.2 8.2 11.2 3.2 3 7.3 4.7 11.9 5.2z" id="Layer_2"/></svg>