<?xml version="1.0" encoding="utf-8"?>
<!-- Generator: Adobe Illustrator 21.1.0, SVG Export Plug-In . SVG Version: 6.00 Build 0)  -->
<svg version="1.1" id="Layer_1" xmlns="http://www.w3.org/2000/svg" xmlns:xlink="http://www.w3.org/1999/xlink" x="0px" y="0px"
	 viewBox="0 0 3650 1098" style="enable-background:new 0 0 3650 1098;" xml:space="preserve">
<style type="text/css">
	.st0{filter:url(#Adobe_OpacityMaskFilter);}
	.st1{fill:#FFFFFF;}
	.st2{mask:url(#mask-2);fill:#A574AA;}
	.st3{filter:url(#Adobe_OpacityMaskFilter_1_);}
	.st4{mask:url(#mask-4);fill:#A574AA;}
	.st5{fill:#5BB1E1;}
	.st6{fill:#FFCE3A;}
	.st7{fill:#EF625A;}
	.st8{fill:#A8CE3C;}
</style>
<title>Group</title>
<desc>Created with Sketch.</desc>
<g id="Page-1">
	<g id="Artboard" transform="translate(-2416.000000, -1864.000000)">
		<g id="Group" transform="translate(2416.000000, 1864.000000)">
			<g id="Group-3" transform="translate(344.000000, 0.000000)">
				<g id="Clip-2">
				</g>
				<defs>
					<filter id="Adobe_OpacityMaskFilter" filterUnits="userSpaceOnUse" x="0.4" y="0.3" width="376.5" height="287.7">
						<feColorMatrix  type="matrix" values="1 0 0 0 0  0 1 0 0 0  0 0 1 0 0  0 0 0 1 0"/>
					</filter>
				</defs>
				<mask maskUnits="userSpaceOnUse" x="0.4" y="0.3" width="376.5" height="287.7" id="mask-2">
					<g class="st0">
						<polygon id="path-1" class="st1" points="0.4,0.3 377,0.3 377,288 0.4,288 						"/>
					</g>
				</mask>
				<path id="Fill-1" class="st2" d="M32.5,157.6l0.4,0.3l-0.3,0.4l6.9,33c4-0.2,8-0.3,12.2-0.3c14.7,0,29.9,1.5,45.7,4.4
					c15.8,2.9,31,8.1,45.8,15.4c14.7,7.4,28.1,17.3,40.2,29.8c12.1,12.5,21.9,28.3,29.2,47.4L377,171.1
					c-27.2-51.4-68.5-92.8-124-124C197.4,15.9,131.8,0.3,56.2,0.3c-19.3,0-37.8,1.2-55.7,3.3L32.5,157.6z"/>
			</g>
			<g id="Group-6" transform="translate(0.000000, 165.000000)">
				<g id="Clip-5">
				</g>
				<defs>
					<filter id="Adobe_OpacityMaskFilter_1_" filterUnits="userSpaceOnUse" x="0" y="0.7" width="728.7" height="628.2">
						<feColorMatrix  type="matrix" values="1 0 0 0 0  0 1 0 0 0  0 0 1 0 0  0 0 0 1 0"/>
					</filter>
				</defs>
				<mask maskUnits="userSpaceOnUse" x="0" y="0.7" width="728.7" height="628.2" id="mask-4">
					<g class="st3">
						<polygon id="path-3" class="st1" points="0,0.7 728.7,0.7 728.7,629 0,629 						"/>
					</g>
				</mask>
				<path id="Fill-4" class="st4" d="M553.4,342.4c-6.6,17.6-15.6,32.5-27,44.6c-11.4,12.1-24.2,22-38.6,29.8
					c-14.3,7.7-29.2,13.2-44.6,16.5c-15.4,3.3-30.5,5-45.2,5c-27.9,0-53.1-5.7-75.5-17.1c-22.4-11.4-41.3-26.6-56.8-45.7
					c-15.4-19.1-27.2-41.2-35.3-66.1c-8.1-25-12.1-51.1-12.1-78.3c0-24.3,3.5-48.7,10.5-73.3c4.5-15.8,10.7-30.5,18.2-44.1L71.4,0.7
					C53.3,26.3,38.5,53.8,27,83.3C9,129.6,0,176.6,0,224.4c0,50,9.5,99.2,28.7,147.7c19.1,48.5,46.1,91.9,81,130.1
					c34.9,38.2,76.4,68.9,124.6,92.1c48.1,23.2,101.2,34.7,159.3,34.7c33.1,0,67.1-4,102-12.1c34.9-8.1,67.6-19.8,98.1-35.3
					c30.5-15.4,57.7-34.5,81.6-57.3c23.9-22.8,41.7-48.5,53.5-77.2L553.4,342.4z"/>
			</g>
			<path id="Fill-9" class="st5" d="M1139.9,629.4l-0.4-0.3l0.3-0.4l-5.4-25.9c-19.8-1.5-36.9-6.6-51.2-15.5
				c-17.3-10.6-31.4-25-42.4-43c-11-18-19.1-38.9-24.2-62.8c-5.2-23.9-7.7-48.7-7.7-74.4V4.7h-215V407c0,52.2,6.6,101.6,19.8,148.3
				c13.2,46.7,34.2,87.6,62.8,122.9c28.7,35.3,65.2,63.4,109.7,84.3c44.5,20.9,97.9,31.4,160.4,31.4c9.4,0,18.5-0.3,27.6-0.8
				L1139.9,629.4z"/>
			<path id="Fill-11" class="st5" d="M1285.4,4.7V407c0,25.7-2.6,50.3-7.7,73.9c-2.1,9.7-4.9,18.9-8,27.7l182.9,117.6
				c10.9-20.5,19.8-42.7,26.8-66.4c14-47.4,20.9-98.3,20.9-152.7V4.7H1285.4z"/>
			<polygon id="Fill-13" class="st6" points="2536.8,168 2488,4.7 2260.9,4.7 2340.5,218.6 			"/>
			<polygon id="Fill-15" class="st6" points="2792.3,4.7 2641.3,517.3 2598.8,375.2 2416.2,422.3 2552,787.4 2730.6,787.4 
				3018.3,4.7 			"/>
			<path id="Fill-17" class="st7" d="M3088.5,191h551.2V4.9h-551.2V191z M3649.4,599.9v187.4h-557.8v-485h444.3v174.2h-229.3v123.5
				H3649.4z"/>
			<path id="Fill-19" class="st8" d="M2145.6,519.6c-6.3-10.9-4.1-25,5.5-33c27.3-22.8,49.1-50.6,65.7-83.4
				c19.8-39.3,29.8-81.7,29.8-127.3c0-33.1-6.6-66-19.8-98.7c-13.2-32.7-31.4-61.7-54.6-87.1c-23.2-25.4-50.9-45.9-83.2-61.7
				c-32.4-15.8-67.6-23.7-105.8-23.7h-100.4v187.4h86.1c13.2,0,40.2,7.2,53.5,21.5c13.2,14.3,26.7,35.1,26.7,62.3
				c0,26.5-12.6,47-24,61.7c-11.4,14.7-39,18.7-50.7,22c-153.6,38-64,182.7-50.3,203.4L2057,787.4h242.5L2145.6,519.6z"/>
			<polygon id="Fill-20" class="st8" points="1620.9,790.4 1841.4,790.4 1841.4,280.5 1620.9,280.5 			"/>
			<path id="Fill-21" class="st1" d="M1264.7,1094.4V951.2h-25.1v-37.1h25.1v-11.6c0-23.7,5.7-42.5,17.1-56.3
				c11.4-13.8,26.9-20.7,46.5-20.7c15.5,0,31.1,3.8,46.9,11.3l-9.8,36.7c-3.6-1.9-7.9-3.6-12.9-4.9c-5-1.3-9.5-2-13.6-2
				c-17,0-25.4,11.4-25.4,34.2v13.4h46.5v37.1h-46.5v143.2H1264.7z"/>
			<path id="Fill-22" class="st1" d="M1586.1,983.1c-1.2-14.3-6.5-25.7-15.8-34.3c-9.3-8.6-20.7-12.9-34-12.9
				c-6.5,0-12.7,1.2-18.4,3.5c-5.7,2.3-10.7,5.5-15.1,9.6c-4.4,4.1-7.9,9.1-10.7,14.9c-2.8,5.8-4.4,12.2-4.9,19.3H1586.1z
				 M1536.7,1098c-15.3,0-29.1-2.6-41.4-7.8c-12.4-5.2-22.9-12.3-31.6-21.3c-8.7-9-15.4-19.4-20.2-31.3c-4.7-11.9-7.1-24.4-7.1-37.4
				c0-13.6,2.3-26.4,6.9-38.3c4.6-12,11.3-22.5,20-31.6c8.7-9.1,19.3-16.3,31.8-21.6c12.5-5.3,26.5-8,42-8c15.5,0,29.4,2.7,41.6,8
				c12.2,5.3,22.7,12.5,31.3,21.4c8.6,9,15.1,19.4,19.6,31.3c4.5,11.9,6.7,24.2,6.7,37.1c0,3.2-0.1,6.2-0.2,9.1
				c-0.1,2.9-0.4,5.3-0.9,7.3H1488c0.7,7.5,2.5,14.2,5.5,20c2.9,5.8,6.7,10.8,11.3,14.9c4.6,4.1,9.8,7.3,15.6,9.4
				c5.8,2.2,11.9,3.3,18.2,3.3c9.7,0,18.8-2.4,27.4-7.1c8.6-4.7,14.5-11,17.6-18.7l41.8,11.6c-7,14.5-18.2,26.5-33.6,35.8
				C1576.4,1093.3,1558,1098,1536.7,1098L1536.7,1098z"/>
			<polygon id="Fill-23" class="st1" points="1782.5,1094.4 1712.4,903.9 1762.5,903.9 1810.9,1054.7 1859.6,903.9 1905.4,903.9 
				1835.2,1094.4 			"/>
			<path id="Fill-24" class="st1" d="M2132.3,983.1c-1.2-14.3-6.5-25.7-15.8-34.3c-9.3-8.6-20.7-12.9-34-12.9
				c-6.5,0-12.7,1.2-18.4,3.5c-5.7,2.3-10.7,5.5-15.1,9.6c-4.4,4.1-7.9,9.1-10.7,14.9c-2.8,5.8-4.4,12.2-4.9,19.3H2132.3z
				 M2082.9,1098c-15.3,0-29.1-2.6-41.4-7.8c-12.4-5.2-22.9-12.3-31.6-21.3c-8.7-9-15.4-19.4-20.2-31.3c-4.7-11.9-7.1-24.4-7.1-37.4
				c0-13.6,2.3-26.4,6.9-38.3c4.6-12,11.3-22.5,20-31.6c8.7-9.1,19.3-16.3,31.8-21.6c12.5-5.3,26.5-8,42-8c15.5,0,29.4,2.7,41.6,8
				c12.2,5.3,22.7,12.5,31.3,21.4c8.6,9,15.1,19.4,19.6,31.3c4.5,11.9,6.7,24.2,6.7,37.1c0,3.2-0.1,6.2-0.2,9.1
				c-0.1,2.9-0.4,5.3-0.9,7.3h-147.2c0.7,7.5,2.5,14.2,5.5,20c2.9,5.8,6.7,10.8,11.3,14.9c4.6,4.1,9.8,7.3,15.6,9.4
				c5.8,2.2,11.9,3.3,18.2,3.3c9.7,0,18.8-2.4,27.4-7.1c8.6-4.7,14.5-11,17.6-18.7l41.8,11.6c-7,14.5-18.2,26.5-33.6,35.8
				C2122.5,1093.3,2104.2,1098,2082.9,1098L2082.9,1098z"/>
			<path id="Fill-25" class="st1" d="M2395.9,946.1c-14.8,0.2-28,3.1-39.6,8.5c-11.6,5.5-20,13.6-25.1,24.5v115.2h-48.7V903.9h44.7
				v40.7c3.4-6.5,7.4-12.4,12-17.6c4.6-5.2,9.6-9.8,14.9-13.6c5.3-3.9,10.7-6.8,16.2-8.9c5.5-2.1,10.7-3.1,15.8-3.1h6
				c1.3,0,2.6,0.1,3.8,0.4V946.1z"/>
		</g>
	</g>
</g>
</svg>
