<svg xmlns="http://www.w3.org/2000/svg" viewBox="0 0 135 135"><style>.st0{opacity:0;fill:#606060}.st1{fill:#fff}</style><path class="st0" d="M0 0h135v135H0z" id="Layer_3"/><g id="Layer_2"><path class="st1" d="M43 108.2c7.5 4.5 15.9 6.8 24.4 6.8 3.8 0 7.7-.5 11.5-1.4 25.4-6.3 41-32.1 34.7-57.5-3-12.3-10.7-22.7-21.6-29.3-10.9-6.6-23.6-8.5-35.9-5.4-12.3 3-22.7 10.7-29.3 21.6-6.6 10.9-8.5 23.6-5.4 35.9 3.1 12.3 10.7 22.7 21.6 29.3zM32.6 46.5c5.6-9.3 14.5-15.9 25.1-18.5 3.3-.8 6.6-1.2 9.9-1.2 7.3 0 14.5 2 21 5.9 9.3 5.6 15.9 14.5 18.5 25.1 5.4 21.8-8 43.9-29.8 49.3-10.6 2.6-21.5 1-30.8-4.7-9.3-5.6-15.9-14.6-18.5-25.1-2.6-10.6-1-21.5 4.6-30.8z"/><path class="st1" d="M74 81.7c-2 .6-4.2 1-6.5 1-14 0-21.9-11.1-24.3-15.1 1.2-1.9 3.9-5.6 7.9-8.9l-4.4-4.4c-6.2 5.3-9.5 11.3-9.7 11.8l-.7 1.4.7 1.4c.4.8 10 19.9 30.5 19.9 4.2 0 8-.9 11.4-2.3L74 81.7zm24.1-15.5c-.4-.8-10-19.9-30.5-19.9-4 0-7.6.8-10.8 2l4.9 4.9c1.9-.5 3.8-.8 5.9-.8 14 0 21.9 11.1 24.3 15.1-1.2 1.9-3.8 5.3-7.5 8.5l4.4 4.4c6-5.2 9.1-11 9.3-11.4l.7-1.4-.7-1.4z"/><path class="st1" d="M57.1 64.7c-.2.9-.4 1.8-.4 2.8 0 6 4.9 10.8 10.8 10.8 1 0 1.9-.2 2.8-.4L57.1 64.7zm21 5c.1-.7.2-1.4.2-2.2 0-6-4.9-10.8-10.8-10.8-.7 0-1.5.1-2.2.2l12.8 12.8z"/></g></svg>