<svg xmlns="http://www.w3.org/2000/svg" viewBox="0 0 135 135"><style>.st0{opacity:0;fill:#606060}.st1{fill:#fff}</style><path class="st0" d="M0 0h135v135H0z" id="Layer_3"/><path class="st1" d="M75.3 73v42l36.9-21zm-6.6 7.1L22.8 94l45.9 13.9zm28.1-31.7l2.8-5.4c-8.5-5.4-18.5-7.7-28.6-6.6-8.4 1-16.2 4.2-22.7 9.4l3.5 5c5.6-4.6 12.5-7.5 19.9-8.4 1.5-.2 2.9-.2 4.3-.2 7.6 0 14.7 2.2 20.8 6.2zM73.6 59.2c.8-.1 1.6-.1 2.4-.1 4.7 0 9.1 1.5 12.9 4.4l2.8-5.4c-5.5-3.9-12.1-5.6-18.8-4.9-5.6.6-10.7 2.9-14.9 6.6l3.5 5c3.3-3.1 7.5-5.1 12.1-5.6zm-3.7-32.8c12.5-1.4 24.5 1.6 34.4 7.7l2.8-5.4c-11.3-6.9-24.5-9.8-37.9-8.3-11.3 1.3-21.6 5.6-30 12.2l3.5 5c7.5-6 16.9-10 27.2-11.2z" id="Layer_2"/></svg>