<svg xmlns="http://www.w3.org/2000/svg" viewBox="0 0 135 135"><style>.st0{opacity:0;fill:#606060}.st1{fill:#fff}</style><path class="st0" d="M0 0h135v135H0z" id="Layer_3"/><g id="Layer_2"><path class="st1" d="M98.4 45.4c-2-1.1-4.1-1.3-5.9-.8-3.9 1.1-5.9 5.2-6.4 10.5-4-3-8-4.4-11.4-2.6-1.1.6-2.7 1.8-3.5 4.4-.6 1.8-.7 4-.4 6.4-4.7-2.3-9-2.9-12-.6-1 .8-2.2 2.3-2.5 4.9-.1 1.4 0 3 .5 4.7-4.3-1-8-.6-10.3 1.8-.9.9-1.9 2.6-1.7 5.3.1 1.7.8 3.7 1.8 5.7-5-.4-9.1.5-11 3.5-.6 1.1-1.3 2.8-.5 5.3 1.6 5.2 8.5 11.5 18 16.3 7.2 3.6 14.8 5.8 20.4 5.8h.5c1.4 0 2.5-1.1 2.5-2.4 0-1.3-1.2-2.3-2.6-2.3-4.8.1-11.7-1.8-18.4-5.2-9.3-4.7-14.6-10.2-15.5-13.4-.2-.7-.2-1.2 0-1.6.8-1.4 4.8-1.7 10.3-.5 2.2 2.8 5.1 5.6 8.4 8.2 6.4 5.1 13.5 8.7 19.1 9.6h.4c.9 0 1.7-.5 2.2-1.2.1 0 .1-.1.2-.1 1.2-.7 1.5-2.2.8-3.3-2.9-4.4-9-9.3-16.4-13.1-3.8-1.9-7.8-3.5-11.6-4.5-2.2-3-3.3-5.6-3.4-7.3-.1-.8.1-1.4.4-1.8 1.1-1.1 4.4-1 8.8.7 1.8 3.5 4.4 7.2 7.6 10.8 5.4 6 11.7 10.6 17 12.4.3.1.6.1.8.1.7 0 1.3-.3 1.8-.8 1.1-.5 1.6-1.8 1.2-2.9-1.8-5-6.7-11-13.1-16.1-3.7-2.9-7.7-5.5-11.7-7.3-1.2-2.7-1.7-4.9-1.5-6.4.1-.8.3-1.3.7-1.6 1.3-1.1 5.3 0 10.2 3.3 1 3.2 2.5 6.6 4.4 10 3.9 7 9.1 12.7 13.8 15.5.4.2.9.3 1.3.3.6 0 1.3-.2 1.7-.7 1.1-.4 1.8-1.5 1.6-2.7-1-5.1-4.8-11.8-10.2-17.8-2.6-2.8-5.4-5.5-8.3-7.6-1-3.8-1.1-6.9-.5-8.6.2-.5.5-1.2 1-1.5 1.5-.8 5.1 1 9 5 .3 3.4.9 6.9 1.9 10.2C90.2 79 94 85.7 98 89.3c.4.3.9.5 1.4.6.4.2.8.4 1.3.4 1.4.1 2.5-1 2.6-2.3.2-5.3-2-12.6-5.9-19.5-1.9-3.4-4.2-6.6-6.6-9.4-.2-6 1.2-9.9 3-10.5.6-.2 1.2 0 2.1.4 3.2 1.7 7.7 7.6 10.5 17 2 6.8 2.5 13.5 1.2 17.9-.4 1.3.4 2.6 1.8 2.9 1.3.4 2.7-.4 3.1-1.7 1.5-5.2 1-12.8-1.3-20.4-2.7-9.1-7.7-16.7-12.8-19.3zM62.4 95c4.1 2.1 7.8 4.5 10.6 7-3.6-1.5-7.5-3.9-11.2-6.9-.4-.3-.8-.6-1.2-1l1.8.9zm8.9-9.8c3.4 2.7 6.4 5.7 8.5 8.6-3.1-2-6.3-4.9-9.3-8.2-.8-.9-1.6-1.8-2.3-2.7 1 .7 2 1.5 3.1 2.3zm16.2 1.4C85.2 84.1 83 81 81 77.5c2.7 3 4.9 6.1 6.5 9.1zm5.6-15.4c1.9 3.3 3.3 6.6 4.2 9.7-1.7-2.8-3.2-6.3-4.4-10 0 .1.1.2.2.3z"/><path class="st1" d="M53.5 53.2c15.7-11.5 35.1-16.6 53.7-15.1l.1-17.1c-11.2.6-22.2 3.1-32.3 7.4-10.2 4.3-19.4 10.4-27.3 17.8-15.7 14.9-25.3 35-28 55.4l1.2.2C26 82.1 37.7 64.6 53.5 53.2z"/></g></svg>