<svg xmlns="http://www.w3.org/2000/svg" viewBox="0 0 135 135"><style>.st0{opacity:0;fill:#606060}.st1{fill:#fff}</style><path class="st0" d="M0 0h135v135H0z" id="Layer_3"/><g id="Layer_2"><path class="st1" d="M46.2 53.5h7.1v7.1h-7.1zm21.3 0h14.2v-7.1H53.3v7.1h7.1zm14.2 0h7.1v7.1h-7.1zm7.1 14.2v6.7h7.1V60.6h-7.1v6.7zm-42.6 6.7h7.1v7.1h-7.1zm0-6.7v-7.1h-7.1v13.8h7.1zm35.5 6.7h7.1v7.1h-7.1zm-14.2 7.1H53.3v7.1h28.4v-7.1h-7.1zm-4.2-19h9.8v9.8h-9.8z"/><path class="st1" d="M43 108.2c7.5 4.5 15.9 6.8 24.4 6.8 3.8 0 7.7-.5 11.5-1.4 25.4-6.3 41-32.1 34.7-57.5-6.3-25.4-32.1-41-57.5-34.7-12.3 3-22.7 10.7-29.3 21.6-6.6 10.9-8.5 23.6-5.4 35.9 3.1 12.3 10.7 22.7 21.6 29.3zM32.6 46.5c5.6-9.3 14.5-15.9 25.1-18.5 3.3-.8 6.6-1.2 9.8-1.2 18.3 0 35 12.4 39.5 30.9 5.4 21.8-8 43.9-29.8 49.3-10.6 2.6-21.5 1-30.8-4.7-9.2-5.6-15.8-14.5-18.4-25-2.6-10.6-1-21.5 4.6-30.8z"/></g></svg>