<svg width="99" height="111" viewBox="0 0 99 111" xmlns="http://www.w3.org/2000/svg"><title>power-mine</title><defs><linearGradient x1="5.696%" y1="6.381%" y2="112.037%" id="a"><stop stop-color="#FC5E64" offset="0%"/><stop stop-color="#9E3135" offset="100%"/></linearGradient></defs><g fill="none" fill-rule="evenodd"><path d="M22.085 4v6.114h55.592V4H89c5.523 0 10 4.477 10 10v92a5 5 0 0 1-5 5H5a5 5 0 0 1-5-5V14C0 8.477 4.477 4 10 4h12.085z" fill="#9A1A20"/><path fill="#F7D729" d="M24.369 6.293h8.377v3.821h-8.377zm10.662 0h8.377v3.821h-8.377zm10.661 0h8.377v3.821h-8.377zm10.662 0h8.377v3.821h-8.377zm10.661 0h8.377v3.821h-8.377z"/><path fill="#FFF" d="M24 2h51.377v4.821H24z"/><path d="M22.085 0v6.114h55.592V0H89c5.523 0 10 4.477 10 10v92a5 5 0 0 1-5 5H5a5 5 0 0 1-5-5V10C0 4.477 4.477 0 10 0h12.085z" fill="url(#a)"/></g></svg>