<svg xmlns="http://www.w3.org/2000/svg" viewBox="0 0 135 135"><style>.st0{opacity:0;fill:#606060}.st1{fill:#fff}</style><path class="st0" d="M0 0h135v135H0z" id="Layer_3"/><path class="st1" d="M31.4 16.3L16.1 31.7l35.4 35.4-3.7-14.9 13.1-6.8zm87.5 87.2L92.2 76.7 93.4 93 79.8 80.3 78 93.6l25.1 25.1zM68.5 33l3.3 19.8 9.9-17.3zm38 32.4l-17.3 2.8 18.5 7.9zM58 75.4l-18.4-.3 5.7 12.5zm8.8 13.5l-7.4 19 10.7 5.3zm34.5-45.5c-1 .5-11.6 14.5-11.6 14.5l21.5-5.1-9.9-9.4zM67.1 65l-12.2-4.5 7-7.9z" id="Layer_2"/></svg>