<svg xmlns="http://www.w3.org/2000/svg" viewBox="0 0 135 135"><style>.st0{opacity:0;fill:#606060}.st1{fill:#fff}</style><path class="st0" d="M0 0h135v135H0z" id="Layer_3"/><path class="st1" d="M66.1 112.8c.5.2 1 .3 1.4.3.4 0 .9-.1 1.4-.3 9.1-4.4 17.2-10.2 23.7-17.9 6.1-7.2 10.3-15.5 13-24.5 1.7-5.8 2.8-11.7 3.3-17.7.3-3.2.4-6.5.6-9.7h-.2v-6c0-.9-.4-1.2-1.2-1.3-4.6-.6-9.3-1.1-13.8-2.1-9.3-1.9-17.9-5.7-25.7-11.1-.5-.3-.8-.5-1-.6-.3.1-.5.3-1 .6-7.8 5.4-16.4 9.2-25.7 11.1-4.6.9-9.2 1.4-13.8 2.1-.9.1-1.2.5-1.2 1.3v6h-.2c.2 3.2.4 6.5.6 9.7.5 6 1.6 11.9 3.3 17.7 2.7 9 6.9 17.3 13 24.5 6.3 7.7 14.4 13.5 23.5 17.9z" id="Layer_2"/></svg>