<svg xmlns="http://www.w3.org/2000/svg" viewBox="0 0 135 135"><style>.st0{opacity:0;fill:#606060}.st1{fill:#fff}</style><path class="st0" d="M0 0h135v135H0z" id="Layer_3"/><g id="Layer_2"><path class="st1" d="M67.5 115c3.8 0 7.6-.5 11.4-1.4 25.4-6.3 41-32.1 34.7-57.5-6.3-25.4-32.1-41-57.5-34.7-25.4 6.3-41 32.1-34.7 57.5 5.3 21.6 24.8 36.1 46.1 36.1zm-9.8-87c3.3-.8 6.6-1.2 9.8-1.2 18.3 0 35 12.4 39.5 31 5.4 21.8-8 43.9-29.8 49.3-21.8 5.4-43.9-8-49.3-29.8-5.3-21.8 8-43.9 29.8-49.3z"/><path class="st1" d="M94 67.5l-6.4-6.4L71.5 45l-6.4 6.4 16.1 16.1-16.1 16.1 6.4 6.4 16.1-16.1 6.4-6.4z"/><path class="st1" d="M73.9 67.5l-6.4-6.4L51.4 45 45 51.4l16 16.1-16 16.1 6.4 6.4 16.1-16.1 6.4-6.4z"/></g></svg>