<svg xmlns="http://www.w3.org/2000/svg" viewBox="0 0 135 135"><style>.st0{opacity:0;fill:#606060}.st1{fill:#fff}</style><path class="st0" d="M0 0h135v135H0z" id="Layer_3"/><path class="st1" d="M122.9 89.7c-.6-9.4-3.5-18.5-8.1-26.4l-20 18.6c.3 2.6.3 5.2-.1 7.7h28.2zM28.4 57.8c9.2-7.6 20.9-10.9 31.8-9.7 8.2.9 15.8 4.3 21.7 9.3l18.7-10.8C89 37.2 74.2 32.7 60.2 33.9 45.6 35 32.1 42.2 23.3 52.7c-8.9 10.5-13 24.2-11.8 36.9h.2c1.1-12.7 7.5-24.3 16.7-31.8zm31.8 20.3c-6.4 0-11.6 5.2-11.6 11.6s5.2 11.6 11.6 11.6c5.7 0 10.4-4.1 11.4-9.6l52.1-48.5-60.9 35.2c-.8-.2-1.7-.3-2.6-.3z" id="Layer_2"/></svg>