<svg xmlns="http://www.w3.org/2000/svg" viewBox="0 0 135 135"><style>.st0{opacity:0;fill:#606060}.st1{fill:#fff}</style><path class="st0" d="M0 0h135v135H0z" id="Layer_3"/><g id="Layer_2"><circle class="st1" cx="67.5" cy="67.5" r="9.3"/><path class="st1" d="M111.3 62h-8.8c-1-5.6-3.3-10.8-6.5-15.1l6.4-6.4c1.5-1.5 1.5-3.8 0-5.3l-2.5-2.5c-1.5-1.5-3.8-1.5-5.3 0l-6.4 6.4c-4.4-3.1-9.5-5.3-15-6.1v-9.2c0-2.1-1.7-3.7-3.7-3.7h-3.6c-2.1 0-3.7 1.7-3.7 3.7V33c-5.5.9-10.7 3-15 6.1l-6.4-6.4c-1.5-1.5-3.8-1.5-5.3 0L33 35.2c-1.5 1.5-1.5 3.8 0 5.3l6.4 6.4c-3.3 4.4-5.5 9.5-6.5 15.1h-8.8c-2.1 0-3.7 1.7-3.7 3.7v3.6c0 2.1 1.7 3.7 3.7 3.7h8.6c.8 5.8 3 11.1 6.2 15.6L33 94.5c-1.5 1.5-1.5 3.8 0 5.3l2.5 2.5c1.5 1.5 3.8 1.5 5.3 0l5.8-5.8c4.5 3.4 9.9 5.7 15.7 6.6v8.1c0 2.1 1.7 3.7 3.7 3.7h3.6c2.1 0 3.7-1.7 3.7-3.7v-8.1c5.8-.9 11.2-3.2 15.7-6.6l5.8 5.8c1.5 1.5 3.8 1.5 5.3 0l2.5-2.5c1.5-1.5 1.5-3.8 0-5.3l-5.9-5.9c3.2-4.5 5.4-9.8 6.2-15.6h8.6c2.1 0 3.7-1.7 3.7-3.7v-3.6c-.2-2.1-1.9-3.7-3.9-3.7zM67.5 84.7c-9.6 0-26.1-17.2-26.1-17.2S58 50.3 67.5 50.3s26.1 17.2 26.1 17.2-16.5 17.2-26.1 17.2z"/><circle class="st1" cx="67.5" cy="67.5" r="9.3"/></g></svg>