<svg xmlns="http://www.w3.org/2000/svg" viewBox="0 0 135 135"><style>.st0{opacity:0;fill:#606060}.st1{fill:#fff}</style><path class="st0" d="M0 0h135v135H0z" id="Layer_3"/><g id="Layer_2"><path class="st1" d="M67.5 74.4c-26.7 0-48.3 9-48.3 20s21.6 20 48.3 20 48.3-9 48.3-20c0-11.1-21.6-20-48.3-20zm0 33.8C45.7 108.2 28 102 28 94.4s17.7-13.9 39.5-13.9S107 86.7 107 94.4s-17.7 13.8-39.5 13.8zM30.6 73.1c-2.2 0-3.9-1.8-3.9-3.9V40.8c0-2.2 1.8-3.9 3.9-3.9 2.2 0 3.9 1.8 3.9 3.9v28.3c0 2.2-1.8 4-3.9 4zM96.9 72c-2.2 0-3.9-1.8-3.9-3.9V39.7c0-2.2 1.8-3.9 3.9-3.9 2.2 0 3.9 1.8 3.9 3.9V68c0 2.2-1.8 4-3.9 4zM50 42c-2.2 0-3.9-1.8-3.9-3.9V22.6c0-2.2 1.8-3.9 3.9-3.9 2.2 0 3.9 1.8 3.9 3.9V38c0 2.2-1.7 4-3.9 4z"/><path class="st1" d="M77.8 102.3c-2.2 0-3.9-1.8-3.9-3.9v-7.9c0-2.2 1.8-3.9 3.9-3.9 2.2 0 3.9 1.8 3.9 3.9v7.9c.1 2.1-1.7 3.9-3.9 3.9z"/></g></svg>