<svg xmlns="http://www.w3.org/2000/svg" viewBox="0 0 135 135"><style>.st0{opacity:0;fill:#606060}.st1{fill:#fff}</style><path class="st0" d="M0 0h135v135H0z" id="Layer_3"/><g id="Layer_2"><path class="st1" d="M58.1 19.5v10.6c24 .3 43.3 19.8 43.3 43.9 0 13.6-6.2 25.8-15.9 33.8l7.3 7.7c11.8-10 19.3-24.9 19.3-41.5-.1-29.9-24.2-54.2-54-54.5z"/><path class="st1" d="M89.4 69.9H83c-.7-4.1-2.4-7.8-4.7-11l4.6-4.6c1.1-1.1 1.1-2.8 0-3.8L81 48.6c-1.1-1.1-2.8-1.1-3.8 0l-4.7 4.7c-3.2-2.3-6.9-3.8-11-4.5v-6.7c0-1.5-1.2-2.7-2.7-2.7h-2.6c-1.5 0-2.7 1.2-2.7 2.7v6.7c-4 .6-7.8 2.2-11 4.5l-4.7-4.7c-1.1-1.1-2.8-1.1-3.8 0l-1.9 1.9c-1.1 1.1-1.1 2.8 0 3.8l4.6 4.6c-2.4 3.2-4 6.9-4.7 11h-6.4c-1.5 0-2.7 1.2-2.7 2.7v2.6c0 1.5 1.2 2.7 2.7 2.7h6.2c.6 4.2 2.2 8.1 4.5 11.4L32 93.6c-1.1 1.1-1.1 2.8 0 3.8l1.9 1.9c1.1 1.1 2.8 1.1 3.8 0l4.2-4.2c3.3 2.5 7.2 4.1 11.4 4.8v5.9c0 1.5 1.2 2.7 2.7 2.7h2.6c1.5 0 2.7-1.2 2.7-2.7v-5.9c4.2-.7 8.1-2.3 11.4-4.8l4.2 4.2c1.1 1.1 2.8 1.1 3.8 0l1.9-1.9c1.1-1.1 1.1-2.8 0-3.8l-4.3-4.3c2.3-3.3 3.9-7.2 4.5-11.4H89c1.5 0 2.7-1.2 2.7-2.7v-2.6c.4-1.4-.8-2.7-2.3-2.7z"/></g></svg>