<svg xmlns="http://www.w3.org/2000/svg" viewBox="0 0 135 135"><style>.st0{opacity:0;fill:#606060}.st1{fill:#fff}</style><path class="st0" d="M0 0h135v135H0z" id="Layer_3"/><g id="Layer_2"><path class="st1" d="M79.1 49.9c-3.7-2.7-8-4.5-12.3-5.2v-7.5c0-1.7-1.4-3.1-3.1-3.1h-3c-1.7 0-3.1 1.4-3.1 3.1v7.4c-4.5.6-8.8 2.3-12.6 5l-5.1-5.1c-1.2-1.2-3.2-1.2-4.4 0l-2.1 2.1c-1.2 1.2-1.2 3.2 0 4.4l5 5c-2.9 3.8-4.7 8.2-5.5 12.7H26c-1.7 0-3.1 1.4-3.1 3.1v3c0 1.7 1.4 3.1 3.1 3.1h6.8c.7 4.6 2.4 9.1 5.3 13l-4.7 4.7c-1.2 1.2-1.2 3.2 0 4.4l2.1 2.1c1.2 1.2 3.2 1.2 4.4 0l4.7-4.7c3.9 2.9 8.4 4.6 13 5.3v6.8c0 1.7 1.4 3.1 3.1 3.1h3c1.7 0 3.1-1.4 3.1-3.1v-6.9c4.5-.8 8.9-2.6 12.7-5.5l5 5c1.2 1.2 3.2 1.2 4.4 0L91 100c1.2-1.2 1.2-3.2 0-4.4l-5.1-5.1c2.7-3.8 4.4-8.2 5-12.6h7.4c1.7 0 3.1-1.4 3.1-3.1v-3c0-1.7-1.4-3.1-3.1-3.1h-7.5c-.7-4.4-2.5-8.6-5.2-12.3"/><path class="st1" d="M80 59l15.8-15.6c4.1 2 9.2 1.3 12.7-2.2 4.3-4.3 4.3-11.4 0-15.7s-11.4-4.3-15.7 0c-3.4 3.4-4.1 8.5-2.2 12.7L75 54s5.8 5 5 5z"/></g></svg>