<svg xmlns="http://www.w3.org/2000/svg" viewBox="0 0 135 135"><style>.st0{opacity:0;fill:#606060}.st1{fill:#fff}</style><path class="st0" d="M0 0h135v135H0z" id="Layer_3"/><g id="Layer_2"><path class="st1" d="M82.6 46.8c-3.9-3.2-8.5-4.9-13.5-5.3-3.5-.2-7 .2-10.3 1.6-5.7 2.3-9.9 6-12.3 11.7-.5 1.2-.9 2.4-.6 3.7.3 1.4 1.7 3.1 3.8 3 5.9-.1 11.9 0 17.8 0h18.1c.2 0 .4 0 .6-.1 2.2-.5 3.5-2.9 2.8-5.2-1.1-3.7-3.3-6.8-6.4-9.4zm-8.3 23.5c0-.6-.1-1.2-.1-1.9H60.9c-.1 1.7-.2 3.4-.4 5-.2 2.3-.7 4.6-1.5 6.8-.8 2.3-1.7 4.5-1.5 7 .1 1.6.7 2.9 1.9 3.9 1.9 1.6 4.2 2.1 6.6 2.3 1.5.1 3-.1 4.6-.2 1.5-.1 2.9-.6 4.2-1.4 1.7-1.1 2.7-2.6 2.8-4.7.1-1.7-.3-3.3-.9-4.8-1.5-3.9-2.4-7.8-2.4-12z"/><path class="st1" d="M92 26.8c-10.9-6.5-23.6-8.5-35.9-5.4-12.3 3-22.7 10.7-29.3 21.6-6.6 10.9-8.5 23.6-5.4 35.9 3 12.3 10.7 22.7 21.6 29.3 7.5 4.5 15.9 6.8 24.4 6.8 3.8 0 7.7-.5 11.5-1.4 12.3-3 22.7-10.7 29.3-21.6 6.6-10.9 8.5-23.6 5.4-35.9-3.1-12.3-10.7-22.7-21.6-29.3zm10.4 61.7c-5.6 9.3-14.5 15.9-25.1 18.5-10.6 2.6-21.5 1-30.8-4.7-9.3-5.6-15.9-14.5-18.5-25-2.6-10.6-1-21.5 4.7-30.8 5.6-9.3 14.5-15.9 25.1-18.5 3.3-.8 6.6-1.2 9.9-1.2 7.3 0 14.5 2 21 5.9 9.3 5.6 15.9 14.5 18.5 25.1 2.4 10.5.8 21.4-4.8 30.7z"/></g></svg>